<svg xmlns="http://www.w3.org/2000/svg" viewBox="0 0 1280 640">
  <defs>
    <linearGradient id="h1" x1="0%" y1="100%" x2="100%" y2="0%">
      <stop offset="0%" style="stop-color:#0d2014" />
      <stop offset="100%" style="stop-color:#1e4a2b;stop-opacity:0.8" />
    </linearGradient>
    <linearGradient id="h2" x1="100%" y1="0%" x2="0%" y2="100%">
      <stop offset="0%" style="stop-color:#2d6b3f" />
      <stop offset="100%" style="stop-color:#3d8a51;stop-opacity:0.75" />
    </linearGradient>
    <linearGradient id="h3" x1="0%" y1="0%" x2="100%" y2="100%">
      <stop offset="0%" style="stop-color:#4d9e60" />
      <stop offset="100%" style="stop-color:#6DC882;stop-opacity:0.82" />
    </linearGradient>
    <radialGradient id="amb" cx="50%" cy="50%" r="50%">
      <stop offset="0%" style="stop-color:#5BAD6F;stop-opacity:0.15" />
      <stop offset="100%" style="stop-color:#050A06;stop-opacity:0" />
    </radialGradient>
  </defs>

  <rect width="1280" height="640" fill="#050A06"/>

  <g stroke="#1a3a22" stroke-width="0.5" opacity="0.5">
    <line x1="160" y1="0" x2="160" y2="640"/>
    <line x1="320" y1="0" x2="320" y2="640"/>
    <line x1="480" y1="0" x2="480" y2="640"/>
    <line x1="640" y1="0" x2="640" y2="640"/>
    <line x1="800" y1="0" x2="800" y2="640"/>
    <line x1="960" y1="0" x2="960" y2="640"/>
    <line x1="1120" y1="0" x2="1120" y2="640"/>
    <line x1="0" y1="160" x2="1280" y2="160"/>
    <line x1="0" y1="320" x2="1280" y2="320"/>
    <line x1="0" y1="480" x2="1280" y2="480"/>
  </g>

  <!-- Hexagonal Crystal + Ghost UI motif -->
  <g transform="translate(280, 320)">
    <circle cx="0" cy="0" r="280" fill="url(#amb)">
      <animate attributeName="r" values="260;300;260" dur="10s" repeatCount="indefinite" />
    </circle>
    <g transform="scale(1.5)">
      <polygon points="0,-72 62.4,-36 62.4,36 0,72 -62.4,36 -62.4,-36" fill="url(#h1)" opacity="0.42" stroke="#1a3a22" stroke-width="0.6">
        <animateTransform attributeName="transform" type="rotate" values="0;360" dur="40s" repeatCount="indefinite" />
        <animate attributeName="opacity" values="0.35;0.5;0.35" dur="9s" repeatCount="indefinite" />
      </polygon>
      <polygon points="0,-56 48.5,-28 48.5,28 0,56 -48.5,28 -48.5,-28" fill="url(#h2)" opacity="0.55" stroke="#2d6b3f" stroke-width="0.5">
        <animateTransform attributeName="transform" type="rotate" values="15;375" dur="28s" repeatCount="indefinite" />
        <animate attributeName="opacity" values="0.48;0.62;0.48" dur="7s" repeatCount="indefinite" />
      </polygon>
      <polygon points="0,-40 34.6,-20 34.6,20 0,40 -34.6,20 -34.6,-20" fill="url(#h3)" opacity="0.68" stroke="#5BAD6F" stroke-width="0.4">
        <animateTransform attributeName="transform" type="rotate" values="30;390" dur="18s" repeatCount="indefinite" />
        <animate attributeName="opacity" values="0.6;0.78;0.6" dur="5.5s" repeatCount="indefinite" />
      </polygon>
      
      <!-- Ghost figure inside crystal -->
      <g transform="scale(1.1) translate(0, 10)">
        <animateTransform attributeName="transform" type="translate" values="0,10; 0,0; 0,10" dur="4s" repeatCount="indefinite" additive="sum"/>
        <path d="M 0 -40 C -30 -40, -45 -10, -45 15 L -45 50 C -45 55, -40 60, -35 55 L -25 45 L -15 55 L -5 45 L 5 55 L 15 45 L 25 55 L 35 45 L 45 55 C 50 60, 55 55, 55 50 L 55 15 C 55 -10, 30 -40, 0 -40 Z" fill="#e8f0e8" opacity="0.85"/>
        <circle cx="-15" cy="-5" r="5" fill="#050A06"/>
        <circle cx="15" cy="-5" r="5" fill="#050A06"/>
      </g>
    </g>
  </g>

  <!-- Swift bird motif next to text -->
  <g transform="translate(480, 172) scale(1.3)">
    <path d="M 42 8 C 42 8, 28 22, 15 32 C 26 28, 36 28, 42 32 C 28 40, 13 45, 3 46 C 13 49, 28 48, 42 41 C 44 44, 46 48, 46 52 C 50 45, 50 34, 42 8 Z" fill="#F05138"/>
  </g>

  <text x="560" y="248" font-family="-apple-system, BlinkMacSystemFont, Helvetica Neue, sans-serif" font-weight="700" font-size="96" fill="#e8f0e8">SwiftAware</text>
  <text x="564" y="316" font-family="-apple-system, BlinkMacSystemFont, Helvetica Neue, sans-serif" font-weight="400" font-size="28" fill="#5BAD6F">Ghost UI toolkit for LLM-assisted iOS development</text>

  <!-- Feature pills -->
  <rect x="564" y="368" width="116" height="34" rx="17" fill="#0d2014" stroke="#1e4a2b" stroke-width="1"/>
  <text x="622" y="390" text-anchor="middle" font-family="monospace" font-size="14" fill="#00D4AA">.ghostID()</text>

  <rect x="694" y="368" width="116" height="34" rx="17" fill="#0d2014" stroke="#1e4a2b" stroke-width="1"/>
  <text x="752" y="390" text-anchor="middle" font-family="monospace" font-size="14" fill="#00D4AA">@AutoLog</text>

  <rect x="824" y="368" width="78" height="34" rx="17" fill="#0d2014" stroke="#1e4a2b" stroke-width="1"/>
  <text x="863" y="390" text-anchor="middle" font-family="monospace" font-size="14" fill="#00D4AA">MCP</text>

  <rect x="916" y="368" width="162" height="34" rx="17" fill="#0d2014" stroke="#1e4a2b" stroke-width="1"/>
  <text x="997" y="390" text-anchor="middle" font-family="monospace" font-size="14" fill="#00D4AA">@TrackedState</text>

  <rect x="564" y="414" width="148" height="34" rx="17" fill="#0d2014" stroke="#1e4a2b" stroke-width="1"/>
  <text x="638" y="436" text-anchor="middle" font-family="monospace" font-size="14" fill="#00D4AA">Plan vs Actual</text>

  <rect x="726" y="414" width="130" height="34" rx="17" fill="#0d2014" stroke="#1e4a2b" stroke-width="1"/>
  <text x="791" y="436" text-anchor="middle" font-family="monospace" font-size="14" fill="#00D4AA">Test Runner</text>

  <!-- Bottom platform info -->
  <text x="564" y="524" font-family="-apple-system, sans-serif" font-size="16" fill="#4d9e60">Swift 6.0</text>
  <circle cx="644" cy="520" r="2" fill="#2d6b3f"/>
  <text x="658" y="524" font-family="-apple-system, sans-serif" font-size="16" fill="#4d9e60">iOS 17+</text>
  <circle cx="738" cy="520" r="2" fill="#2d6b3f"/>
  <text x="752" y="524" font-family="-apple-system, sans-serif" font-size="16" fill="#4d9e60">macOS 14+</text>
  <circle cx="854" cy="520" r="2" fill="#2d6b3f"/>
  <text x="868" y="524" font-family="-apple-system, sans-serif" font-size="16" fill="#4d9e60">SPM</text>
</svg>